<?xml version="1.0" encoding="utf-8"?>
<!-- Generator: Adobe Illustrator 26.0.1, SVG Export Plug-In . SVG Version: 6.00 Build 0)  -->
<svg version="1.1" id="Layer_1" xmlns="http://www.w3.org/2000/svg" xmlns:xlink="http://www.w3.org/1999/xlink" x="0px" y="0px"
	 viewBox="0 0 64 64" style="enable-background:new 0 0 64 64;" xml:space="preserve">
<style type="text/css">
	.st0{fill:#BC9977;}
	.st1{fill:#FABAAB;}
	.st2{fill:#B38B63;}
	.st3{fill:#3F6DB5;}
	.st4{fill:#A97D51;}
	.st5{fill:#4D7FC1;}
	.st6{fill:#ED8823;}
	.st7{fill:#3262AE;}
	.st8{fill:#F8981E;}
	.st9{fill:#F6947B;}
</style>
<path class="st0" d="M2.1,35.31c-0.01-2.23-0.02-4.46-0.02-6.69c0-6.39,0-12.78,0-19.17c0-0.26-0.1-0.55,0.1-0.79
	c0.23,0.28,0.56,0.16,0.84,0.16c4.85,0.01,9.7,0.01,14.55,0.01c0,4.38,0,8.76,0,13.25c1.41-0.7,2.71-1.33,4-1.99
	c0.32-0.17,0.57-0.17,0.89,0c0.83,0.44,1.68,0.86,2.53,1.27c0.46,0.22,0.89,0.53,1.46,0.63c0-4.42,0-8.78,0-13.15
	c4.42,0,8.85,0,13.27,0.01c0,6.43,0,12.87,0,19.3c0,0.55-0.03,1.09-0.11,1.64c-0.48,3.1-3.29,5.53-6.45,5.53
	C22.82,35.31,12.46,35.31,2.1,35.31z"/>
<path class="st1" d="M46.36,60.7c-2.84,1.86-5.94,2.39-9.32,2.24c-4.53-0.2-9.08-0.08-13.63-0.03c-1,0.01-1.84-0.25-2.68-0.73
	C14.52,58.59,8.3,55.01,2.07,51.44c-1.05-0.6-1.67-1.49-1.91-2.65c-0.33-1.58,1.35-3.44,2.96-3.59c1.64-0.15,2.8,0.79,4.05,1.5
	c3.09,1.74,6.14,3.52,9.2,5.31c0.46,0.27,0.69,0.26,0.93-0.27c0.42-0.95,1.24-1.44,2.22-1.7c3.09-0.82,6.17-1.64,9.26-2.47
	c2.57-0.69,5.15-1.37,7.72-2.08c0.62-0.17,1.23-0.2,1.84-0.06c2.68,0.65,5.35,1.32,8.02,1.99C46.36,51.86,46.36,56.28,46.36,60.7z
	 M16.94,52.95c-0.3,1.75,1.33,3.78,3.24,3.61c0.56-0.05,1.09-0.14,1.62-0.28c3.86-1.03,7.72-2.05,11.58-3.08
	c0.54-0.14,0.67-0.55,0.3-0.94c-0.23-0.24-0.5-0.13-0.77-0.05c-3.93,1.04-7.85,2.09-11.79,3.12c-0.7,0.18-1.4,0.19-2.1-0.06
	C17.97,54.89,17.35,54.12,16.94,52.95z"/>
<path class="st2" d="M2.1,35.31c10.36,0,20.72,0,31.08,0c3.16,0,5.96-2.43,6.45-5.53c0.09-0.55,0.11-1.09,0.11-1.64
	c0-6.43,0-12.87,0-19.3c0.7-0.09,1.43,0.18,2.1-0.17c0.21,0.21,0.11,0.48,0.11,0.72c0.01,9.87,0,19.75,0.02,29.62
	c0,0.56-0.12,0.73-0.71,0.72c-12.82-0.02-25.64-0.02-38.46,0c-0.56,0-0.76-0.11-0.73-0.7C2.12,37.79,2.09,36.55,2.1,35.31z"/>
<path class="st3" d="M46.36,60.7c0-4.42,0-8.84,0-13.26c0.01-0.94,0.03-1.88,0.01-2.81c-0.01-0.39,0.12-0.5,0.5-0.5
	c2.62,0.02,5.24,0.02,7.86,0c0.45,0,0.54,0.16,0.52,0.56c-0.03,0.55,0,1.1,0,1.65c0,5.16,0,10.32,0,15.47c0,0.57-0.02,1.15,0,1.72
	c0.01,0.35-0.08,0.48-0.46,0.48c-2.65-0.01-5.31-0.02-7.96,0c-0.38,0-0.46-0.13-0.46-0.48C46.39,62.58,46.37,61.64,46.36,60.7z"/>
<path class="st4" d="M41.83,8.66c-0.68,0.35-1.4,0.08-2.1,0.17c-4.42,0-8.85,0-13.27-0.01c-0.05-0.05-0.1-0.09-0.15-0.14
	c-0.02-0.18-0.03-0.36-0.07-0.54c-0.66-2.71-1.33-5.42-2-8.12C28.55,0.02,32.86,0.02,37.17,0c0.27,0,0.41,0.11,0.52,0.34
	C39.07,3.12,40.45,5.89,41.83,8.66z"/>
<path class="st4" d="M17.57,8.83c-4.85,0-9.7,0-14.55-0.01c-0.28,0-0.6,0.12-0.84-0.16c1.38-2.77,2.77-5.54,4.15-8.32
	C6.45,0.11,6.58,0,6.85,0c4.31,0.02,8.62,0.02,12.94,0.03c-0.04,0.11-0.09,0.21-0.12,0.32c-0.69,2.74-1.38,5.48-2.06,8.22
	C17.59,8.65,17.58,8.74,17.57,8.83z"/>
<path class="st5" d="M57.46,46.36c2.05-0.01,4.1,0.01,6.15-0.04c0.56-0.01,0.5,0.29,0.5,0.65c0,3.49,0,6.98,0,10.46
	c0,1.29-0.01,2.57,0.01,3.86c0.01,0.39-0.12,0.51-0.51,0.5c-2.05-0.02-4.1-0.02-6.15-0.03C57.46,56.63,57.46,51.5,57.46,46.36z"/>
<path class="st6" d="M17.61,8.57c0.69-2.74,1.37-5.48,2.06-8.22c0.03-0.11,0.08-0.21,0.12-0.32c1.48,0,2.96,0,4.45,0
	c0.67,2.71,1.34,5.41,2,8.12c0.04,0.17,0.05,0.36,0.07,0.54c-0.11,0.15-0.28,0.14-0.44,0.14c-2.56,0-5.11,0-7.67,0.01
	C17.94,8.84,17.76,8.76,17.61,8.57z"/>
<path class="st7" d="M57.46,46.36c0,5.13,0,10.27,0,15.4c-0.74,0.01-1.47,0.02-2.21,0.04c0-5.16,0-10.32,0-15.47
	C55.99,46.34,56.72,46.35,57.46,46.36z"/>
<path class="st8" d="M17.61,8.57c0.15,0.19,0.33,0.27,0.59,0.27c2.56-0.01,5.11-0.01,7.67-0.01c0.16,0,0.33,0.01,0.44-0.14
	c0.05,0.05,0.1,0.09,0.15,0.14c0,4.37,0,8.73,0,13.15c-0.57-0.1-1-0.41-1.46-0.63c-0.85-0.41-1.7-0.82-2.53-1.27
	c-0.32-0.17-0.57-0.16-0.89,0c-1.28,0.66-2.59,1.29-4,1.99c0-4.49,0-8.87,0-13.25C17.58,8.74,17.59,8.65,17.61,8.57z"/>
<path class="st9" d="M16.94,52.95c0.41,1.17,1.03,1.94,2.08,2.32c0.7,0.26,1.4,0.25,2.1,0.06c3.93-1.03,7.86-2.08,11.79-3.12
	c0.27-0.07,0.54-0.19,0.77,0.05c0.37,0.39,0.25,0.79-0.3,0.94c-3.86,1.03-7.72,2.04-11.58,3.08c-0.54,0.14-1.07,0.23-1.62,0.28
	C18.27,56.73,16.64,54.71,16.94,52.95z"/>
</svg>
