<?xml version="1.0" encoding="utf-8"?>
<!-- Generator: Adobe Illustrator 26.0.1, SVG Export Plug-In . SVG Version: 6.00 Build 0)  -->
<svg version="1.1" id="Layer_1" xmlns="http://www.w3.org/2000/svg" xmlns:xlink="http://www.w3.org/1999/xlink" x="0px" y="0px"
	 viewBox="0 0 64 64" style="enable-background:new 0 0 64 64;" xml:space="preserve">
<style type="text/css">
	.st0{fill:#24B34B;}
	.st1{fill:#E41F26;}
	.st2{fill:#FFFFFF;}
	.st3{fill:#FCFCFC;}
</style>
<g>
	<path class="st0" d="M44.34,0c1.55,0.54,2.43,1.52,2.36,3.11c-0.01,0.25,0.08,0.35,0.35,0.43c1.2,0.35,2.38,0.77,3.48,1.34
		c0.26,0.14,0.41,0.1,0.63-0.09c1.66-1.43,3.22-1.4,4.84,0.09c0.96,0.88,1.93,1.76,2.88,2.65c1.39,1.3,1.41,2.91,0.03,4.2
		c-0.31,0.29-0.33,0.49-0.12,0.84c0.54,0.91,0.97,1.87,1.29,2.86c0.1,0.32,0.23,0.5,0.67,0.51c2.06,0.04,3.25,1.18,3.25,3.07
		c0,1.31,0,2.62,0,3.94c-0.01,1.74-1.22,2.93-3.1,2.94c-0.53,0.01-0.72,0.16-0.86,0.62c-0.3,0.98-0.73,1.92-1.27,2.81
		c-0.19,0.32-0.19,0.51,0.11,0.79c1.42,1.32,1.39,2.91-0.03,4.24c-1.02,0.95-2.03,1.9-3.07,2.83c-1.39,1.25-3.12,1.26-4.5,0.01
		c-0.31-0.28-0.53-0.32-0.91-0.13c-0.98,0.5-2.03,0.9-3.11,1.19c-0.4,0.11-0.57,0.25-0.57,0.67c-0.04,1.86-1.29,2.95-3.3,2.96
		c-1.42,0-2.85,0.01-4.27,0c-1.88-0.01-3.17-1.14-3.21-2.86c-0.01-0.47-0.16-0.67-0.66-0.8c-1.06-0.28-2.08-0.67-3.04-1.18
		c-0.34-0.18-0.56-0.17-0.87,0.1c-1.45,1.31-3.17,1.28-4.6-0.03c-1.03-0.94-2.05-1.88-3.07-2.83c-1.35-1.26-1.36-2.89-0.01-4.15
		c0.3-0.28,0.36-0.48,0.14-0.84c-0.56-0.92-1-1.9-1.31-2.92c-0.1-0.35-0.28-0.48-0.7-0.48c-2.03-0.03-3.22-1.16-3.22-3.02
		c0-1.31,0-2.62,0-3.94c0-1.77,1.22-2.96,3.13-2.99c0.5-0.01,0.69-0.16,0.82-0.58c0.32-0.99,0.75-1.95,1.3-2.86
		c0.19-0.3,0.16-0.48-0.12-0.74c-1.44-1.36-1.41-2.94,0.04-4.29c0.99-0.92,1.98-1.83,2.97-2.74c1.44-1.32,3.17-1.34,4.6-0.04
		c0.29,0.26,0.48,0.32,0.85,0.12c1.02-0.53,2.1-0.93,3.23-1.24c0.25-0.07,0.5-0.12,0.48-0.48C35.8,1.52,36.69,0.54,38.24,0
		C40.27,0,42.3,0,44.34,0z M35.88,35.72c0-1.63-0.02-3.2,0.01-4.78c0.01-0.41-0.12-0.62-0.52-0.81c-6.73-3.25-8.56-11.29-3.81-16.73
		c1.1-1.26,2.36-2.37,4.06-2.91c1.5-0.48,2.71,0.21,3.02,1.64c0.11,0.5,0.09,0.99,0.08,1.49c-0.04,2.14-0.11,4.29,0.03,6.43
		c0.08,1.16,1.19,2.13,2.36,2.23c1.07,0.09,2.26-0.72,2.61-1.81c0.09-0.29,0.13-0.62,0.13-0.92c0.01-1.87,0.02-3.75,0-5.62
		c-0.01-0.65-0.08-1.29,0.08-1.93c0.28-1.12,1.18-1.73,2.42-1.63c0.48,0.04,0.92,0.2,1.34,0.41c4.15,2.03,6.74,7.14,5.81,11.41
		c-0.79,3.61-2.91,6.29-6.43,8.03c-0.2,0.1-0.39,0.17-0.39,0.44c0.01,1.68,0.01,3.36,0.01,5.1c1.29-0.38,2.43-0.91,3.53-1.51
		c0.77-0.42,1.32-0.35,1.95,0.2c0.33,0.29,0.65,0.58,0.96,0.89c0.28,0.28,0.52,0.25,0.8-0.01c0.98-0.92,1.98-1.83,2.97-2.74
		c0.28-0.25,0.31-0.48,0.01-0.74c-0.36-0.31-0.71-0.64-1.05-0.97c-0.46-0.44-0.59-0.97-0.26-1.49c1.04-1.59,1.8-3.29,2.29-5.09
		c0.16-0.6,0.65-0.88,1.3-0.91c0.5-0.02,0.99-0.02,1.49,0c0.39,0.02,0.59-0.1,0.59-0.49c-0.01-1.31-0.01-2.62,0-3.94
		c0-0.33-0.13-0.5-0.52-0.48c-0.47,0.02-0.95,0.01-1.42,0c-0.81-0.02-1.28-0.32-1.48-1.04c-0.47-1.72-1.18-3.34-2.19-4.86
		c-0.37-0.56-0.3-1.12,0.2-1.6c0.34-0.33,0.69-0.66,1.05-0.97c0.3-0.26,0.29-0.47,0-0.73c-1-0.91-1.99-1.82-2.97-2.74
		c-0.31-0.29-0.55-0.27-0.84,0.02c-0.34,0.34-0.69,0.66-1.06,0.97c-0.51,0.43-1.1,0.5-1.68,0.17c-1.64-0.94-3.4-1.6-5.27-2.03
		c-0.82-0.19-1.13-0.62-1.15-1.41c-0.01-0.42-0.01-0.83,0-1.25c0.01-0.33-0.11-0.51-0.5-0.5C42,2.5,40.56,2.5,39.11,2.5
		c-0.34,0-0.49,0.14-0.48,0.45c0.01,0.44,0.01,0.87,0,1.31c-0.01,0.78-0.34,1.21-1.16,1.4c-1.85,0.43-3.58,1.09-5.21,2
		c-0.66,0.37-1.22,0.3-1.79-0.19c-0.35-0.3-0.69-0.6-1.01-0.93c-0.29-0.3-0.54-0.29-0.84,0c-0.69,0.66-1.4,1.3-2.1,1.95
		c-1.24,1.14-1.24,1.14-0.03,2.27c0.78,0.73,0.84,1.18,0.28,2.04c-0.91,1.4-1.59,2.88-1.99,4.47c-0.22,0.86-0.7,1.19-1.69,1.2
		c-0.36,0-0.73,0.03-1.08-0.01c-0.59-0.06-0.74,0.19-0.72,0.69c0.03,0.83,0.01,1.67,0.01,2.5c0,1.71,0,1.71,1.82,1.72
		c0.05,0,0.09,0,0.14,0c0.8,0.02,1.28,0.32,1.47,1.04c0.46,1.73,1.19,3.34,2.19,4.86c0.37,0.56,0.28,1.12-0.21,1.6
		c-0.26,0.26-0.52,0.53-0.82,0.75c-0.52,0.39-0.57,0.7-0.03,1.14c0.7,0.56,1.32,1.2,1.98,1.8c1.2,1.11,1.2,1.11,2.42-0.01
		c0.78-0.71,1.28-0.78,2.22-0.27C33.55,34.87,34.64,35.39,35.88,35.72z M35.95,13.17c-0.14,0.06-0.21,0.08-0.26,0.11
		c-3.01,2.02-4.41,4.76-3.93,8.16c0.44,3.16,2.36,5.43,5.53,6.72c0.96,0.39,1.38,0.91,1.36,1.89c-0.05,2.89-0.01,5.79-0.03,8.68
		c0,0.47,0.16,0.63,0.66,0.62c1.29-0.02,2.58-0.03,3.86,0c0.6,0.02,0.83-0.13,0.82-0.73c-0.03-2.79,0.03-5.58-0.04-8.37
		c-0.03-1.09,0.37-1.69,1.48-2.14c5.46-2.21,7.23-8.48,3.68-12.89c-0.66-0.81-1.42-1.52-2.45-2.08c0,2.19,0,4.28,0,6.38
		c0,1.02-0.27,1.97-0.84,2.85c-1.07,1.62-3.31,2.7-5,2.43c-2.95-0.49-4.83-2.55-4.84-5.32C35.94,17.41,35.95,15.33,35.95,13.17z"/>
	<path class="st1" d="M35.66,64c-1.28-0.33-2.56-0.68-3.85-1c-5.19-1.29-10.37-2.58-15.56-3.86c-1.17-0.29-2.38-0.08-3.57-0.14
		c-0.24-0.01-0.27,0.18-0.35,0.32c-0.72,1.32-1.88,1.97-3.48,1.96c-1.67-0.01-3.34,0.01-5.02,0C1.48,61.28,0,59.9,0,57.73
		c0-4.23,0-8.46,0-12.69c0-2.11,1.53-3.53,3.81-3.53c1.69,0,3.39,0,5.08,0c1.54,0,2.69,0.63,3.39,1.9c0.16,0.3,0.34,0.37,0.66,0.38
		c1.3,0.05,2.53-0.14,3.75-0.6c1.91-0.71,3.9-1.16,5.98-1.19c3.25-0.05,6,1.12,8.49,2.93c0.43,0.31,0.87,0.61,1.23,0.98
		c0.56,0.58,1.22,0.73,2.04,0.72c2.26-0.04,4.52-0.01,6.78-0.01c1.2,0,2.26,0.38,3.14,1.11c0.3,0.25,0.49,0.22,0.81,0.07
		c3.4-1.62,6.8-3.23,10.21-4.83c1.9-0.89,3.79-0.91,5.55,0.28c2.54,1.71,2.58,5.17,0.04,7.07c-1.62,1.22-3.38,2.28-5.1,3.39
		c-0.62,0.4-1.46,0.22-1.87-0.31c-0.46-0.6-0.33-1.32,0.39-1.8c1.48-0.99,2.98-1.95,4.46-2.94c1.04-0.69,1.45-1.58,1.16-2.45
		c-0.42-1.24-1.81-1.7-3.27-1.04c-1.42,0.64-2.81,1.32-4.21,1.98c-1.98,0.94-3.96,1.89-5.94,2.81c-0.36,0.17-0.54,0.31-0.49,0.74
		c0.35,3.1-2.37,5.25-5.3,5.19c-3.82-0.07-7.64-0.02-11.46-0.02c-0.99,0-1.59-0.55-1.53-1.36c0.05-0.72,0.61-1.14,1.54-1.15
		c3.73,0,7.46,0,11.19,0c0.31,0,0.63-0.01,0.94-0.06c1.21-0.21,2.01-1.15,1.92-2.22c-0.09-1.09-1.08-1.94-2.31-1.95
		c-2.44-0.02-4.88-0.03-7.32,0c-1.11,0.01-2-0.32-2.8-1.02c-1.51-1.33-3.16-2.48-5.16-3.12c-2.66-0.84-5.26-0.44-7.79,0.45
		c-1.6,0.56-3.19,1.01-4.92,0.89c-0.38-0.02-0.44,0.13-0.44,0.44c0.01,3.1,0.01,6.21,0,9.31c0,0.26,0.01,0.45,0.38,0.42
		c3.68-0.33,7.03,1.04,10.47,1.83c3.86,0.89,7.69,1.88,11.52,2.86c2,0.51,3.87,0.28,5.65-0.69c1.28-0.7,2.45-1.55,3.68-2.33
		c0.51-0.32,1.04-0.38,1.58-0.06c0.51,0.31,0.68,0.75,0.59,1.3c-0.04,0.29-0.19,0.53-0.42,0.69c-2.06,1.38-4.03,2.89-6.53,3.57
		c-0.44,0.12-0.88,0.22-1.32,0.32C37.38,64,36.52,64,35.66,64z M9.9,51.46c0-2.12,0-4.24,0-6.37c0-0.78-0.29-1.05-1.14-1.05
		c-1.62-0.01-3.25-0.01-4.87,0c-0.85,0-1.16,0.28-1.16,1.04c-0.01,4.22-0.01,8.45,0,12.67c0,0.73,0.32,1,1.12,1.01
		c1.62,0,3.25,0,4.87,0c0.92,0,1.18-0.25,1.18-1.12C9.9,55.58,9.9,53.52,9.9,51.46z"/>
	<path class="st0" d="M48.8,55.89c0.01-0.69,0.67-1.28,1.4-1.24c0.71,0.03,1.32,0.61,1.32,1.27c0,0.69-0.63,1.27-1.38,1.27
		C49.38,57.18,48.79,56.61,48.8,55.89z"/>
	<path class="st2" d="M35.95,13.17c0,2.15-0.01,4.23,0,6.31c0.01,2.77,1.89,4.83,4.84,5.32c1.69,0.28,3.93-0.81,5-2.43
		c0.58-0.87,0.84-1.83,0.84-2.85c0-2.1,0-4.19,0-6.38c1.03,0.55,1.8,1.26,2.45,2.08c3.54,4.4,1.77,10.68-3.68,12.89
		c-1.11,0.45-1.5,1.05-1.48,2.14c0.07,2.79,0,5.58,0.04,8.37c0.01,0.6-0.22,0.75-0.82,0.73c-1.29-0.03-2.57-0.02-3.86,0
		c-0.5,0.01-0.66-0.15-0.66-0.62c0.02-2.89-0.02-5.79,0.03-8.68c0.02-0.98-0.4-1.5-1.36-1.89c-3.17-1.29-5.09-3.56-5.53-6.72
		c-0.48-3.4,0.92-6.14,3.93-8.16C35.74,13.25,35.8,13.23,35.95,13.17z"/>
	<path class="st3" d="M9.9,51.46c0,2.06,0,4.12,0,6.18c0,0.87-0.26,1.12-1.18,1.12c-1.62,0-3.25,0-4.87,0
		c-0.79,0-1.12-0.28-1.12-1.01c-0.01-4.22-0.01-8.45,0-12.67c0-0.76,0.31-1.04,1.16-1.04c1.62-0.01,3.25-0.01,4.87,0
		c0.85,0,1.14,0.27,1.14,1.05C9.91,47.22,9.9,49.34,9.9,51.46z"/>
</g>
</svg>
